<?xml version="1.0" encoding="UTF-8"?>
<svg xmlns="http://www.w3.org/2000/svg" xmlns:xlink="http://www.w3.org/1999/xlink" width="16pt" height="16pt" viewBox="0 0 16 16" version="1.1">
<g id="surface1">
<path style=" stroke:none;fill-rule:nonzero;fill:rgb(0%,0%,0%);fill-opacity:1;" d="M 7.3125 0.0546875 C 4.835938 0.304688 2.644531 1.648438 1.320312 3.714844 C 0.71875 4.660156 0.285156 5.820312 0.121094 6.921875 C 0.101562 7.070312 0.0859375 7.527344 0.0859375 8.03125 C 0.0859375 8.761719 0.0976562 8.945312 0.152344 9.265625 C 0.300781 10.09375 0.546875 10.84375 0.90625 11.546875 C 1.332031 12.382812 1.773438 12.992188 2.390625 13.609375 C 4.988281 16.210938 8.988281 16.710938 12.117188 14.824219 C 13.445312 14.023438 14.476562 12.898438 15.171875 11.488281 C 15.539062 10.742188 15.730469 10.15625 15.882812 9.3125 C 15.945312 8.964844 15.953125 8.820312 15.953125 8 C 15.953125 6.992188 15.921875 6.714844 15.722656 5.949219 C 15.535156 5.242188 15.152344 4.382812 14.730469 3.71875 C 13.554688 1.867188 11.679688 0.601562 9.460938 0.15625 C 9.039062 0.0703125 7.738281 0.0078125 7.3125 0.0546875 Z M 11.402344 4.441406 C 11.664062 4.589844 12.179688 4.960938 12.230469 5.039062 C 12.316406 5.167969 12.324219 5.332031 12.257812 5.460938 C 12.195312 5.578125 10.886719 7.523438 8.929688 10.40625 C 8.398438 11.1875 7.914062 11.882812 7.851562 11.945312 C 7.609375 12.195312 7.308594 12.21875 7.007812 12.011719 C 6.816406 11.882812 5.351562 10.449219 4.675781 9.738281 C 4.242188 9.28125 4.238281 9.273438 4.226562 9.117188 C 4.214844 8.976562 4.226562 8.933594 4.3125 8.804688 C 4.417969 8.648438 4.894531 8.179688 5.046875 8.085938 C 5.179688 8.007812 5.375 8.015625 5.488281 8.101562 C 5.539062 8.136719 5.933594 8.519531 6.371094 8.945312 C 6.804688 9.367188 7.179688 9.71875 7.203125 9.71875 C 7.226562 9.71875 7.734375 8.996094 8.332031 8.117188 C 10.722656 4.59375 10.84375 4.421875 11 4.367188 C 11.109375 4.324219 11.242188 4.351562 11.402344 4.441406 Z M 11.402344 4.441406 "/>
</g>
</svg>
